<?xml version="1.0" standalone="no"?>
<!DOCTYPE svg PUBLIC "-//W3C//DTD SVG 20010904//EN"
 "http://www.w3.org/TR/2001/REC-SVG-20010904/DTD/svg10.dtd">
<svg version="1.0" xmlns="http://www.w3.org/2000/svg"
 width="500.000000pt" height="500.000000pt" viewBox="0 0 500.000000 500.000000"
 preserveAspectRatio="xMidYMid meet">
<metadata>
Created by potrace 1.14, written by Peter Selinger 2001-2017
</metadata>
<g transform="translate(0.000000,500.000000) scale(0.100000,-0.100000)"
fill="#000000" stroke="none">
<path d="M3432 4365 c-12 -15 -22 -30 -22 -34 -1 -17 -11 -89 -15 -107 -4 -16
-20 -24 -86 -39 l-82 -18 -19 24 c-80 102 -89 109 -124 109 -27 0 -53 -14
-119 -62 -119 -90 -125 -118 -44 -224 l31 -42 -41 -62 c-22 -35 -42 -67 -44
-73 -2 -6 -29 -5 -75 3 -132 22 -152 -1 -168 -201 -6 -74 -6 -76 21 -97 26
-21 53 -28 124 -35 35 -3 35 -3 56 -89 l21 -86 -26 -15 c-14 -9 -44 -32 -67
-52 -62 -53 -60 -82 17 -183 67 -89 77 -99 105 -102 40 -4 53 1 105 42 49 39
54 41 75 27 13 -8 46 -27 74 -44 56 -33 54 -22 35 -147 -8 -53 19 -96 66 -104
19 -4 44 -8 55 -10 11 -3 50 -7 86 -10 59 -6 68 -4 91 17 20 18 28 38 33 74
11 91 9 89 96 111 l79 20 53 -65 c45 -57 58 -66 88 -69 31 -3 48 6 116 57 96
73 106 84 106 121 0 27 -32 85 -72 126 -16 18 -15 21 19 74 20 30 39 63 43 73
7 18 32 18 130 2 61 -10 102 26 111 97 2 18 7 58 11 88 4 30 9 58 11 61 2 4
-6 22 -19 40 -23 34 -46 43 -132 51 l-39 4 -21 84 -21 85 57 42 c99 73 102
100 21 210 -67 89 -79 101 -113 107 -29 4 -51 -6 -108 -52 -40 -33 -45 -35
-67 -21 -12 8 -45 27 -73 44 l-51 30 6 45 c3 25 8 53 10 62 3 9 2 32 -1 51
-10 54 -44 68 -211 83 -69 6 -71 6 -92 -21z m96 -485 c117 -36 197 -111 233
-219 54 -162 -32 -346 -193 -409 -120 -46 -274 -10 -358 85 -64 73 -84 125
-84 224 -1 76 2 92 29 144 70 136 240 216 373 175z"/>
<path d="M2287 4134 c-1 -1 -40 -4 -86 -8 -109 -8 -276 -47 -388 -90 -435
-166 -743 -489 -888 -931 -22 -68 -38 -101 -51 -106 -11 -4 -63 -21 -117 -38
-237 -76 -417 -193 -546 -355 -165 -209 -239 -487 -202 -766 14 -101 17 -113
47 -205 49 -150 132 -290 240 -405 63 -66 171 -157 178 -149 2 2 27 68 56 147
l53 143 -40 38 c-99 96 -164 203 -210 349 -24 77 -27 102 -27 222 0 111 4 148
22 205 91 292 314 459 714 535 55 11 103 21 104 23 2 2 13 50 25 108 82 401
311 702 656 864 71 33 206 80 261 90 15 3 36 7 47 9 12 2 46 7 78 11 38 5 57
12 57 21 0 27 32 110 58 149 35 53 48 66 101 104 33 23 39 31 25 32 -37 3
-165 5 -167 3z"/>
<path d="M4537 3080 c-18 -26 -96 -85 -124 -94 -13 -4 -23 -10 -23 -14 -1 -4
-3 -31 -5 -61 l-3 -54 58 -57 c131 -130 220 -314 248 -515 9 -68 8 -280 -2
-335 -4 -25 -10 -189 -12 -364 l-3 -319 35 34 c122 117 218 305 266 521 30
137 33 435 4 568 -41 193 -109 355 -202 486 -48 67 -198 224 -214 224 -5 0
-15 -9 -23 -20z"/>
<path d="M1273 1877 c-23 -62 -76 -202 -118 -312 -42 -110 -78 -204 -79 -210
-2 -5 -6 -17 -9 -25 -44 -106 -267 -714 -263 -718 5 -4 151 -5 397 -2 l35 0
33 113 33 112 240 0 241 0 24 -80 c13 -44 29 -95 36 -114 l12 -33 218 0 c120
0 220 2 223 5 3 2 -2 20 -10 38 -8 19 -65 169 -126 334 -61 165 -115 309 -120
320 -5 11 -64 169 -132 350 l-123 330 -235 2 -235 2 -42 -112z m387 -636 c16
-52 27 -97 24 -100 -3 -3 -68 -6 -145 -6 -153 0 -148 -3 -125 67 8 24 35 113
61 198 25 85 51 170 57 189 10 33 12 31 55 -110 24 -79 57 -186 73 -238z"/>
<path d="M2430 1297 l0 -692 163 2 c89 1 186 2 215 2 l52 1 0 253 0 254 148 0
c267 1 375 30 475 126 96 93 137 244 114 412 -16 118 -94 233 -191 280 -98 48
-150 53 -578 54 l-398 0 0 -692z m640 398 c104 -22 151 -140 89 -227 -34 -48
-73 -61 -191 -66 l-108 -4 0 154 0 154 88 -1 c48 -1 103 -6 122 -10z"/>
<path d="M3775 1980 c-3 -5 -5 -315 -4 -689 l1 -681 101 -1 c259 -1 320 0 326
9 5 8 6 1265 2 1353 -1 14 -26 16 -211 17 -115 1 -212 -3 -215 -8z"/>
</g>
</svg>
